<?xml version="1.0" encoding="utf-8"?>
<!-- Generator: Adobe Illustrator 21.1.0, SVG Export Plug-In . SVG Version: 6.00 Build 0)  -->
<svg version="1.1" id="Postcards" xmlns="http://www.w3.org/2000/svg" xmlns:xlink="http://www.w3.org/1999/xlink" x="0px" y="0px"
	 viewBox="0 0 432 288" style="enable-background:new 0 0 432 288;" xml:space="preserve">
<style type="text/css">
	.st0{fill:#BF4327;}
	.st1{fill:#A03822;}
	.st2{fill:#E25026;}
	.st3{fill:#FFFFFF;}
	.st4{fill:#057094;}
	.st5{fill:#086281;}
	.st6{clip-path:url(#SVGID_2_);}
	.st7{clip-path:url(#SVGID_4_);fill:#FFFFFF;}
	.st8{fill:#A79E37;}
	.st9{fill:#999034;}
	.st10{fill:#F1DD3F;}
	.st11{display:none;fill:#F1DD3F;}
	.st12{fill:#393839;}
	.st13{fill:#526BA4;}
	.st14{fill:#455B8D;}
	.st15{fill:#5E7ABC;}
	.st16{fill:#414142;}
	.st17{fill:#383739;}
	.st18{fill:#595A5C;}
	.st19{fill:url(#path1948_1_);}
	.st20{fill:url(#path1950_1_);}
	.st21{fill:#993420;}
	.st22{fill:#B94126;}
	.st23{fill:#D14A27;}
	.st24{fill:none;stroke:#D14A27;stroke-width:0.25;stroke-miterlimit:10;}
	.st25{fill:#28A49F;}
	.st26{fill:#188682;}
	.st27{fill:#2ABCB6;}
	.st28{fill:#082622;}
	.st29{fill-rule:evenodd;clip-rule:evenodd;fill:#2ABCB6;}
	.st30{fill:#1D599E;}
	.st31{fill:#1B4278;}
	.st32{fill:#2263AE;}
	.st33{fill:#D16E28;}
	.st34{fill:#8D4B20;}
	.st35{fill:url(#SVGID_5_);}
	.st36{fill:#F37F20;}
	.st37{fill:#8DB23E;}
	.st38{fill:#6D8D3B;}
	.st39{fill:#A3CD3A;}
	.st40{fill:#1A2918;}
	.st41{fill:#15643F;}
	.st42{fill:#095332;}
	.st43{fill-rule:evenodd;clip-rule:evenodd;fill:#21754B;}
	.st44{fill-rule:evenodd;clip-rule:evenodd;fill:#FFFFFF;}
	.st45{fill:#953134;}
	.st46{fill:#7B2527;}
	.st47{fill:#A2383A;}
	.st48{fill:#34B3D9;}
	.st49{fill:#2D9DBD;}
	.st50{fill:url(#SVGID_6_);}
	.st51{fill:#36C5ED;}
	.st52{fill:#CF3D7A;}
	.st53{fill:#992559;}
	.st54{fill:url(#SVGID_7_);}
	.st55{fill:#ED468A;}
	.st56{fill:#AB78AA;}
	.st57{fill:#805A80;}
	.st58{fill:url(#SVGID_8_);}
	.st59{fill:#BA81B8;}
</style>
<g id="HTML">
	
		<rect x="100.4" y="304.6" transform="matrix(0.7071 -0.7071 0.7071 0.7071 -144.1706 289.1718)" class="st0" width="353.1" height="28.1"/>
	
		<rect x="130.7" y="320.1" transform="matrix(0.7071 -0.7071 0.7071 0.7071 -148.0685 310.8399)" class="st1" width="340.9" height="28.1"/>
	<g>
		<rect x="391.9" y="183.8" class="st2" width="39.7" height="39.7"/>
		<g>
			<path class="st3" d="M396.5,200.1h2.4v2.4h2.2v-2.4h2.4v7.1H401v-2.4h-2.2v2.4h-2.4L396.5,200.1L396.5,200.1z"/>
			<path class="st3" d="M406.6,202.5h-2.1v-2.4h6.6v2.4h-2.1v4.8h-2.4L406.6,202.5L406.6,202.5z"/>
			<path class="st3" d="M412.1,200.1h2.5l1.5,2.5l1.5-2.5h2.5v7.1h-2.4v-3.5l-1.6,2.5h0l-1.6-2.5v3.5h-2.3V200.1z"/>
			<path class="st3" d="M421.3,200.1h2.4v4.8h3.4v2.4h-5.7V200.1z"/>
		</g>
	</g>
</g>
<g id="WordPress">
	
		<rect x="216.8" y="231.9" transform="matrix(0.7071 -0.7071 0.7071 0.7071 -87.2564 278.7922)" class="st4" width="152.1" height="25.7"/>
	
		<rect x="244.2" y="246.2" transform="matrix(0.7071 -0.7071 0.7071 0.7071 -90.9505 298.5267)" class="st5" width="141.3" height="25.7"/>
	<g>
		<g>
			<defs>
				<rect id="SVGID_1_" x="337.6" y="181.9" width="36.3" height="36.3"/>
			</defs>
			<use xlink:href="#SVGID_1_"  style="overflow:visible;fill:#00769B;"/>
			<clipPath id="SVGID_2_">
				<use xlink:href="#SVGID_1_"  style="overflow:visible;"/>
			</clipPath>
			<g class="st6">
				<defs>
					<rect id="SVGID_3_" x="337.6" y="181.9" width="36.3" height="36.3"/>
				</defs>
				<use xlink:href="#SVGID_3_"  style="overflow:visible;fill:#00769B;"/>
				<clipPath id="SVGID_4_">
					<use xlink:href="#SVGID_3_"  style="overflow:visible;"/>
				</clipPath>
				<path class="st7" d="M343.6,200.1c0,4.8,2.8,9,6.9,11l-5.8-16C344,196.6,343.6,198.3,343.6,200.1"/>
				<path class="st7" d="M364.1,199.5c0-1.5-0.5-2.6-1-3.4c-0.6-1-1.2-1.9-1.2-2.9c0-1.1,0.9-2.2,2.1-2.2c0.1,0,0.1,0,0.2,0
					c-2.2-2-5.1-3.2-8.3-3.2c-4.3,0-8,2.2-10.2,5.5c0.3,0,0.6,0,0.8,0c1.3,0,3.3-0.2,3.3-0.2c0.7,0,0.7,0.9,0.1,1
					c0,0-0.7,0.1-1.4,0.1l4.5,13.3l2.7-8l-1.9-5.2c-0.7,0-1.3-0.1-1.3-0.1c-0.7,0-0.6-1,0.1-1c0,0,2,0.2,3.2,0.2
					c1.3,0,3.3-0.2,3.3-0.2c0.7,0,0.7,0.9,0.1,1c0,0-0.7,0.1-1.4,0.1l4.4,13.2l1.2-4.1C363.7,201.7,364.1,200.5,364.1,199.5"/>
				<path class="st7" d="M356.1,201.2l-3.7,10.7c1.1,0.3,2.3,0.5,3.5,0.5c1.4,0,2.8-0.2,4.1-0.7c0-0.1-0.1-0.1-0.1-0.2L356.1,201.2z
					"/>
				<path class="st7" d="M366.6,194.2c0.1,0.4,0.1,0.8,0.1,1.3c0,1.2-0.2,2.6-0.9,4.4l-3.7,10.8c3.6-2.1,6.1-6.1,6.1-10.6
					C368.1,198,367.5,196,366.6,194.2"/>
				<path class="st7" d="M355.9,185.8c-7.9,0-14.3,6.4-14.3,14.3c0,7.9,6.4,14.3,14.3,14.3s14.3-6.4,14.3-14.3
					C370.1,192.2,363.7,185.8,355.9,185.8 M355.9,213.7c-7.5,0-13.6-6.1-13.6-13.6c0-7.5,6.1-13.6,13.6-13.6s13.6,6.1,13.6,13.6
					C369.5,207.6,363.4,213.7,355.9,213.7"/>
			</g>
		</g>
	</g>
</g>
<g id="JavaScript_2_">
	
		<rect x="26.6" y="289.4" transform="matrix(0.7071 -0.7071 0.7071 0.7071 -162.2399 214.0734)" class="st8" width="301.3" height="27"/>
	
		<rect x="67.8" y="299.3" transform="matrix(0.7071 -0.7071 0.7071 0.7071 -161.0042 236.9584)" class="st9" width="275.4" height="27"/>
	<g id="XMLID_82_">
		<rect id="XMLID_85_" x="274.3" y="186.8" class="st10" width="38.2" height="38.2"/>
		<rect id="XMLID_83_" x="275.9" y="188.5" class="st11" width="34.8" height="34.8"/>
	</g>
	<path id="JavaScript_3_" class="st12" d="M306,212.5l-0.7-0.3c-1.2-0.5-1.8-0.8-1.8-1.8c0-0.7,0.5-1.2,1.4-1.2
		c0.8,0,1.3,0.3,1.9,1.2l2.3-1.5c-0.9-1.7-2.3-2.3-4.1-2.3c-2.6,0-4.3,1.7-4.3,3.8c0,2.4,1.4,3.5,3.5,4.5l0.7,0.3
		c1.3,0.5,2.1,0.9,2.1,2c0,0.8-0.7,1.5-2,1.5c-1.5,0-2.3-0.7-2.9-1.8l-2.4,1.3c0.8,1.7,2.6,3,5.4,3c2.8,0,4.9-1.5,4.9-4.1
		C309.9,214.7,308.5,213.6,306,212.5L306,212.5z M298.1,216.8v-10.1h-3v10c0,1.5-0.6,1.8-1.6,1.8c-1,0-1.4-0.7-1.9-1.5l-2.4,1.5
		c0.7,1.5,2.1,2.7,4.4,2.7C296.3,221.2,298.1,219.8,298.1,216.8z"/>
</g>
<g id="Prezi">
	
		<rect x="128.5" y="307.8" transform="matrix(0.7071 -0.7071 0.7071 0.7071 -158.124 262.3335)" class="st13" width="218.1" height="28.5"/>
	
		<rect x="164.3" y="321.4" transform="matrix(0.7071 -0.7071 0.7071 0.7071 -159.9672 285.1496)" class="st14" width="199.8" height="28.5"/>
	<rect x="304.7" y="234.9" class="st15" width="40.3" height="40.3"/>
	<g>
		<path class="st3" d="M324.8,244.6c-2.2,0-4.1,0.8-5.7,2.4c-1.6,1.6-2.4,3.5-2.4,5.7c0,2.2,0.8,4.1,2.4,5.7
			c1.6,1.6,3.5,2.4,5.7,2.4c2.2,0,4.1-0.8,5.7-2.4c1.6-1.6,2.4-3.5,2.4-5.7c0-2.2-0.8-4.1-2.4-5.7
			C328.9,245.4,327,244.6,324.8,244.6 M329.9,257.8c-1.4,1.4-3.2,2.1-5.1,2.1c-2,0-3.7-0.7-5.1-2.1c-1.4-1.4-2.1-3.1-2.1-5.1
			c0-2,0.7-3.7,2.1-5.1c1.4-1.4,3.1-2.1,5.1-2.1c2,0,3.7,0.7,5.1,2.1c1.4,1.4,2.1,3.1,2.1,5.1C332,254.7,331.3,256.4,329.9,257.8
			 M324.8,246.2c-1.8,0-3.3,0.6-4.6,1.9c-1.3,1.3-1.9,2.8-1.9,4.6c0,1.8,0.6,3.3,1.9,4.6c1.3,1.3,2.8,1.9,4.6,1.9
			c1.8,0,3.3-0.6,4.6-1.9c1.3-1.3,1.9-2.8,1.9-4.6c0-1.8-0.6-3.3-1.9-4.6C328.1,246.9,326.6,246.2,324.8,246.2 M330.4,253
			c-0.1,1.6-0.7,2.9-1.8,3.9c-1.2,1-2.5,1.5-4.1,1.4c-1.6-0.1-2.9-0.7-3.9-1.8c-1-1.2-1.5-2.5-1.4-4.1c0.1-1.6,0.7-2.9,1.9-3.9
			c1.1-1,2.5-1.5,4.1-1.4c1.5,0.1,2.8,0.7,3.9,1.9C330,250.1,330.5,251.4,330.4,253 M333.7,249c-0.5-1.2-1.2-2.2-2-3.1
			c-0.9-0.9-1.9-1.6-3.1-2.1c-1.2-0.5-2.4-0.8-3.7-0.8c-1.3,0-2.6,0.3-3.8,0.8c-1.1,0.5-2.2,1.2-3.1,2.1c-0.9,0.9-1.6,1.9-2,3.1
			c-0.5,1.2-0.8,2.4-0.8,3.7c0,1.3,0.2,2.6,0.8,3.7c0.5,1.1,1.2,2.2,2,3.1c0.9,0.9,1.9,1.6,3.1,2.1c1.2,0.5,2.4,0.8,3.8,0.8
			c1.3,0,2.6-0.3,3.7-0.8c1.2-0.5,2.2-1.2,3.1-2.1c0.9-0.9,1.6-1.9,2-3.1c0.5-1.2,0.8-2.4,0.8-3.7
			C334.4,251.4,334.2,250.1,333.7,249 M332.9,256.1c-0.5,1-1.1,2-1.9,2.8c-0.8,0.8-1.7,1.4-2.8,1.9c-1.1,0.5-2.2,0.7-3.4,0.7
			c-1.2,0-2.4-0.2-3.4-0.7c-1.1-0.5-2-1.1-2.8-1.9c-0.8-0.8-1.4-1.8-1.9-2.8c-0.5-1.1-0.7-2.2-0.7-3.4c0-1.2,0.2-2.4,0.7-3.5
			c0.4-1,1.1-2,1.9-2.8c0.8-0.8,1.8-1.4,2.8-1.9c1.1-0.5,2.2-0.7,3.4-0.7c1.2,0,2.4,0.2,3.4,0.7c1.1,0.5,2,1.1,2.8,1.9
			c0.8,0.8,1.4,1.8,1.9,2.8c0.5,1.1,0.7,2.2,0.7,3.5C333.6,253.9,333.4,255,332.9,256.1"/>
		<path class="st3" d="M320.6,254.9c0.1,0.3,0.3,0.5,0.5,0.7v-5.9c-0.7,0.8-1,1.8-1,2.9C320.1,253.5,320.3,254.3,320.6,254.9
			 M322.2,256.6C322.2,256.6,322.2,256.6,322.2,256.6c0.3,0.2,0.7,0.4,1.1,0.5v-8.9c-0.4,0.1-0.7,0.3-1.1,0.5V256.6z M324.3,248v9.4
			c0,0,0,0,0,0c0.2,0,0.3,0,0.5,0c0.2,0,0.4,0,0.5,0c0,0,0,0,0,0V248c-0.2,0-0.3,0-0.5,0C324.6,248,324.4,248,324.3,248
			 M326.4,257.1c0.4-0.1,0.7-0.3,1-0.5c0,0,0,0,0,0v-7.8c-0.3-0.2-0.7-0.4-1.1-0.5V257.1z M328.5,249.8v5.9c0.2-0.2,0.3-0.5,0.5-0.7
			c0.4-0.7,0.5-1.4,0.5-2.2C329.5,251.6,329.2,250.6,328.5,249.8"/>
		<path class="st3" d="M322.6,239.3c-0.5,0.1-0.9,0.2-1.4,0.3l0.8,2.8c0.4-0.1,0.7-0.2,1.1-0.2L322.6,239.3z M315.8,246.9l-2.4-1.6
			c-0.3,0.4-0.5,0.8-0.7,1.2l2.6,1.3C315.4,247.5,315.6,247.2,315.8,246.9 M319.9,240c-0.4,0.2-0.9,0.4-1.3,0.6l1.3,2.6
			c0.3-0.2,0.7-0.3,1-0.5L319.9,240z M319,243.7l-1.6-2.4c-0.4,0.3-0.8,0.5-1.2,0.8l1.8,2.2C318.3,244.1,318.6,243.9,319,243.7
			 M317.2,245.1l-2.1-2c-0.3,0.3-0.6,0.7-0.9,1l2.3,1.8C316.7,245.7,317,245.4,317.2,245.1 M331.5,244.4l1.8-2.2
			c-0.4-0.3-0.8-0.6-1.2-0.9l-1.6,2.4C330.9,243.9,331.2,244.1,331.5,244.4 M331,240.6c-0.4-0.2-0.8-0.4-1.3-0.6l-1,2.7
			c0.4,0.1,0.7,0.3,1,0.5L331,240.6z M333.1,246l2.2-1.8c-0.3-0.4-0.6-0.7-1-1.1l-2.1,2C332.6,245.4,332.9,245.7,333.1,246
			 M334.3,247.8l2.6-1.3c-0.2-0.4-0.5-0.8-0.7-1.2l-2.4,1.6C334,247.2,334.2,247.5,334.3,247.8 M335.1,249.9l2.8-0.7
			c-0.1-0.5-0.3-0.9-0.4-1.4l-2.7,1C334.9,249.2,335,249.6,335.1,249.9 M328.3,239.6c-0.5-0.1-0.9-0.2-1.4-0.3l-0.4,2.9
			c0.4,0.1,0.7,0.1,1.1,0.2L328.3,239.6z M325.5,239.1c-0.5,0-0.9,0-1.4,0l0.2,2.9c0.4,0,0.7,0,1.1,0L325.5,239.1z M314.4,255.5
			l-2.8,0.7c0.1,0.5,0.3,0.9,0.4,1.3l2.7-1C314.7,256.2,314.5,255.8,314.4,255.5 M335.4,254.4l2.9,0.4c0.1-0.5,0.1-0.9,0.1-1.4
			l-2.9-0.1C335.5,253.6,335.4,254,335.4,254.4 M334.8,256.5l2.7,1c0.2-0.4,0.3-0.9,0.4-1.4l-2.8-0.7
			C335,255.8,334.9,256.2,334.8,256.5 M338.2,250.6l-2.9,0.4c0.1,0.4,0.1,0.7,0.1,1.1l0,0l2.9-0.2l0,0
			C338.3,251.5,338.3,251,338.2,250.6 M333.8,258.5l2.4,1.6c0.3-0.4,0.5-0.8,0.7-1.2l-2.6-1.3C334.2,257.9,334,258.2,333.8,258.5
			 M332.4,260.3l2,2c0.3-0.3,0.7-0.7,1-1.1l-2.3-1.8C332.9,259.7,332.6,260,332.4,260.3 M330.6,261.6l1.6,2.4
			c0.4-0.3,0.8-0.5,1.2-0.8l-1.8-2.2C331.2,261.2,330.9,261.5,330.6,261.6 M314.8,248.9l-2.7-1c-0.2,0.4-0.3,0.9-0.4,1.3l2.8,0.7
			C314.5,249.6,314.7,249.2,314.8,248.9 M316.5,259.4l-2.2,1.8c0.3,0.4,0.6,0.7,1,1.1l2.1-2C317,260,316.7,259.7,316.5,259.4
			 M315.2,257.5l-2.6,1.3c0.2,0.4,0.4,0.8,0.7,1.2l2.4-1.6C315.6,258.2,315.4,257.9,315.2,257.5 M314.1,253.3l-2.9,0.2
			c0,0.5,0.1,0.9,0.1,1.4l2.9-0.5C314.2,254,314.1,253.6,314.1,253.3 M318.1,261l-1.8,2.2c0.4,0.3,0.8,0.6,1.2,0.8l1.6-2.4
			C318.7,261.5,318.3,261.2,318.1,261 M314.2,251l-2.9-0.4c-0.1,0.5-0.1,0.9-0.1,1.4l2.9,0.1C314.1,251.7,314.2,251.4,314.2,251
			 M328.6,262.7l1,2.7c0.4-0.2,0.9-0.4,1.3-0.6l-1.3-2.6C329.3,262.4,329,262.5,328.6,262.7 M318.6,264.8c0.4,0.2,0.9,0.4,1.3,0.6
			l1-2.7c-0.3-0.1-0.7-0.3-1-0.5L318.6,264.8z M324.1,266.3c0.5,0,1,0,1.4,0l-0.2-2.9c-0.4,0-0.7,0-1.1,0L324.1,266.3z M326.5,263.3
			l0.5,2.9c0.5-0.1,0.9-0.2,1.4-0.3l-0.7-2.8C327.2,263.1,326.8,263.2,326.5,263.3 M321.3,265.8c0.5,0.1,0.9,0.2,1.4,0.3l0.5-2.9
			c-0.4-0.1-0.7-0.1-1.1-0.2L321.3,265.8z"/>
	</g>
	<g>
		<path class="st3" d="M317.2,272.2v-4.9h2c0.9,0,1.6,0.8,1.6,1.6c0,0.8-0.6,1.6-1.5,1.6h-1.1v1.6H317.2z M318.2,269.7h1
			c0.4,0,0.6-0.3,0.6-0.8c0-0.5-0.3-0.8-0.7-0.8h-1V269.7z"/>
		<path class="st3" d="M323.5,269.3c-0.6,0-1,0.3-1.2,0.7v2.1h-0.9v-3.6h0.8v0.8c0.3-0.5,0.7-0.8,1.1-0.8c0.1,0,0.1,0,0.2,0
			L323.5,269.3z"/>
		<path class="st3" d="M323.7,270.4c0-1,0.7-1.9,1.9-1.9c1.2,0,1.8,0.9,1.8,1.8c0,0.1,0,0.3,0,0.3h-2.7c0,0.6,0.5,0.9,1,0.9
			c0.4,0,0.8-0.3,0.9-0.6l0.8,0.3c-0.3,0.5-0.9,0.9-1.7,0.9C324.4,272.2,323.7,271.4,323.7,270.4 M326.5,270.1
			c0-0.5-0.4-0.9-0.9-0.9c-0.5,0-0.9,0.4-0.9,0.9H326.5z"/>
		<path class="st3" d="M331.3,267.6c0-0.3,0.2-0.5,0.5-0.5c0.3,0,0.5,0.2,0.5,0.5c0,0.3-0.2,0.5-0.5,0.5
			C331.6,268.1,331.3,267.9,331.3,267.6 M331.4,268.6h0.9v3.6h-0.9V268.6z"/>
		<polygon class="st3" points="327.5,272.2 329.4,269.3 327.7,269.3 327.7,268.6 330.7,268.6 328.9,271.4 330.8,271.4 330.8,272.2 
					"/>
	</g>
</g>
<g id="Python">
	
		<rect x="86.3" y="224.5" transform="matrix(0.7071 -0.7071 0.7071 0.7071 -126.2065 185.2051)" class="st16" width="148.2" height="40.9"/>
	
		<rect x="119.1" y="251.8" transform="matrix(0.7071 -0.7071 0.7071 0.7071 -136.6041 214.8206)" class="st17" width="143.7" height="40.9"/>
	<g>
		<rect x="198.4" y="178.1" class="st18" width="57.9" height="57.9"/>
		<g>
			
				<linearGradient id="path1948_1_" gradientUnits="userSpaceOnUse" x1="700.6404" y1="-241.8309" x2="740.4954" y2="-276.1207" gradientTransform="matrix(0.5625 0 0 -0.568 -188.1093 50.2874)">
				<stop  offset="0" style="stop-color:#5B9ED1"/>
				<stop  offset="1" style="stop-color:#326B99"/>
			</linearGradient>
			<path id="path1948_2_" class="st19" d="M227.1,186.5c-1.7,0-3.3,0.2-4.7,0.4c-4.1,0.7-4.9,2.3-4.9,5.1v3.7h9.8v1.2h-9.8h-3.7
				c-2.8,0-5.3,1.7-6.1,5c-0.9,3.7-0.9,6.1,0,10c0.7,2.9,2.4,5,5.2,5h3.4v-4.5c0-3.2,2.8-6.1,6.1-6.1h9.8c2.7,0,4.9-2.2,4.9-5V192
				c0-2.7-2.2-4.7-4.9-5.1C230.5,186.6,228.8,186.5,227.1,186.5z M221.8,189.5c1,0,1.8,0.8,1.8,1.9c0,1-0.8,1.9-1.8,1.9
				c-1,0-1.8-0.8-1.8-1.9C220,190.3,220.8,189.5,221.8,189.5z"/>
			
				<linearGradient id="path1950_1_" gradientUnits="userSpaceOnUse" x1="755.9035" y1="-296.8743" x2="741.6714" y2="-276.7382" gradientTransform="matrix(0.5625 0 0 -0.568 -188.1093 50.2874)">
				<stop  offset="0" style="stop-color:#FFD33E"/>
				<stop  offset="1" style="stop-color:#FCE676"/>
			</linearGradient>
			<path id="path1950_2_" class="st20" d="M238.3,196.9v4.4c0,3.4-2.9,6.2-6.1,6.2h-9.8c-2.7,0-4.9,2.3-4.9,5v9.3
				c0,2.7,2.3,4.2,4.9,5c3.1,0.9,6.1,1.1,9.8,0c2.5-0.7,4.9-2.2,4.9-5v-3.7h-9.8v-1.2h9.8h4.9c2.8,0,3.9-2,4.9-5c1-3.1,1-6,0-10
				c-0.7-2.8-2-5-4.9-5H238.3z M232.8,220.6c1,0,1.8,0.8,1.8,1.9c0,1-0.8,1.9-1.8,1.9c-1,0-1.8-0.8-1.8-1.9
				C231,221.4,231.8,220.6,232.8,220.6z"/>
		</g>
	</g>
</g>
<g id="Powerpoint">
	
		<rect x="-125" y="325.5" transform="matrix(0.7071 -0.7071 0.7071 0.7071 -224.1015 132.618)" class="st21" width="346" height="22.7"/>
	
		<rect x="-163.2" y="321.7" transform="matrix(0.7071 -0.7071 0.7071 0.7071 -227.9633 114.1232)" class="st22" width="373.9" height="21.2"/>
	<g>
		<rect x="148.5" y="192.6" class="st23" width="29.9" height="29.9"/>
		<g>
			<g id="g3607_2_" transform="translate(-223.01556,0)">
				<path class="st3" d="M387,197.3l-0.6,0.1l-7.7,1.3l-2.8,0.5c0,5.6,0,11.1,0,16.7l1.4,0.2c3.2,0.6,6.3,1.1,9.5,1.7l0,0l1.5,0.3
					V209c0-0.2,0-0.5,0-0.7c0,0,0,0,0,0v-11.2L387,197.3z M383,208.3c-0.5,0.3-1.2,0.2-1.7,0.2c0,0.9,0,1.9,0,2.8
					c-0.5,0-0.9-0.1-1.4-0.1c0-2.5,0-5.1,0-7.6c1.3,0.1,2.9-0.5,3.9,0.5C384.8,205.3,384.5,207.6,383,208.3z"/>
				<path class="st3" d="M383,208.3c-0.5,0.3-1.2,0.2-1.7,0.2c0,0.9,0,1.9,0,2.8c-0.5,0-0.9-0.1-1.4-0.1c0-2.5,0-5.1,0-7.6
					c1.3,0.1,2.9-0.5,3.9,0.5C384.8,205.3,384.5,207.6,383,208.3z"/>
				<path class="st3" d="M386.4,197.4l-7.7,1.3C381.3,198.3,383.9,197.8,386.4,197.4z"/>
				<path class="st3" d="M396.9,213.7c0,0.5,0,1-0.2,1.4c-0.3,0.3-0.8,0.2-1.2,0.2c-2.4,0-4.8,0-7.1,0V209c0-0.2,0-0.5,0-0.7
					c0,0,0,0,0,0v-8.8c2.5,0,5.1,0,7.6,0c0.5-0.1,1,0.4,0.9,0.9C397,204.8,396.9,209.3,396.9,213.7z"/>
				<path class="st23" d="M396.2,200.1v14.5h-7.9v-1.9h5.7v-1h-5.7v-1.2h5.7v-1h-5.7c0-0.2,0-0.5,0-0.7c0-0.2,0-0.5,0-0.7
					c0,0,0,0,0,0c0.9,0.3,2,0.3,2.9-0.3c0.9-0.5,1.4-1.6,1.5-2.6c-1,0-2.1,0-3.1,0c0-1,0-2.1,0-3.1c-0.4,0.1-0.8,0.2-1.2,0.2v-2.4
					H396.2z"/>
				<path id="path60_2_"  class="st3" d="M390.2,201.6c1.7,0.1,3,1.5,3.1,3.1c-1,0-2.1,0-3.1,0
					C390.2,203.7,390.2,202.6,390.2,201.6z"/>
				<path class="st23" d="M383,208.3c-0.5,0.3-1.2,0.2-1.7,0.2c0,0.9,0,1.9,0,2.8c-0.5,0-0.9-0.1-1.4-0.1c0-2.5,0-5.1,0-7.6
					c1.3,0.1,2.9-0.5,3.9,0.5C384.8,205.3,384.5,207.6,383,208.3z"/>
				<path id="path94_2_"  class="st3" d="M381.2,204.9c0.5,0,1-0.1,1.4,0.3c0.3,0.5,0.3,1.1,0,1.6
					c-0.3,0.5-0.9,0.4-1.4,0.5C381.2,206.5,381.2,205.7,381.2,204.9z"/>
			</g>
			<line class="st24" x1="165.3" y1="196.4" x2="165.3" y2="218.7"/>
		</g>
	</g>
</g>
<g id="Audition">
	
		<rect x="-8.1" y="228.3" transform="matrix(0.7071 -0.7071 0.7071 0.7071 -149.1086 116.3542)" class="st25" width="148" height="19.8"/>
	
		<rect x="5.8" y="242.3" transform="matrix(0.7071 -0.7071 0.7071 0.7071 -154.8644 130.2557)" class="st26" width="148" height="19.6"/>
	<g id="XMLID_54_">
		<rect id="XMLID_79_" x="111.2" y="178.9" class="st27" width="27.8" height="27.8"/>
		<rect id="XMLID_77_" x="112.5" y="180.1" class="st28" width="25.4" height="25.4"/>
		<g id="XMLID_58_">
			<g>
				<path id="XMLID_109_" class="st27" d="M119.1,194.6l-1,3.4c0,0.1-0.1,0.2-0.2,0.2h-1.7c-0.1,0-0.1-0.1-0.1-0.2
					c0.9-3,2.4-8,3.4-11.4c0-0.2,0.1-0.4,0.1-1.1c0-0.1,0-0.1,0.1-0.1h2.3c0.1,0,0.1,0,0.1,0.1c1.2,4,2.6,8.5,3.8,12.6
					c0,0.1,0,0.2-0.1,0.2H124c-0.1,0-0.1,0-0.1-0.1l-1.1-3.5H119.1z M122.4,192.6c-0.3-1.3-1.1-4-1.5-5.4h0
					c-0.2,1.3-0.9,3.5-1.4,5.4H122.4z"/>
			</g>
		</g>
		<path id="XMLID_56_" class="st29" d="M133.9,196.2c0,0.1,0,0.5,0.1,1.2c0,0.1,0,0.1-0.1,0.1c-1,0.4-2.1,0.8-3.5,0.8
			c-1.7,0-3.4-0.7-3.4-3.3v-6.1c0-0.1,0-0.2,0.1-0.2h1.8c0.1,0,0.1,0.1,0.1,0.2v5.9c0,1.1,0.4,1.7,1.6,1.7c0.5,0,0.9-0.1,1.2-0.2
			v-7.4c0-0.1,0-0.2,0.1-0.2h1.8c0.1,0,0.1,0.1,0.1,0.2V196.2z"/>
	</g>
</g>
<g id="CSS_1_">
	
		<rect x="-45.7" y="221.9" transform="matrix(0.7071 -0.7071 0.7071 0.7071 -157.9353 81.7794)" class="st30" width="130.8" height="19.4"/>
	
		<rect x="-32.3" y="235.7" transform="matrix(0.7071 -0.7071 0.7071 0.7071 -163.752 95.4048)" class="st31" width="131.2" height="19.4"/>
	<g>
		<rect x="59.2" y="178.4" class="st32" width="27.4" height="27.4"/>
		<g>
			<polygon class="st3" points="65.1,193.2 65.1,191.2 68.1,191.2 68.1,189 62.9,189 62.9,195.3 68.1,195.3 68.1,193.2 			"/>
			<path class="st3" d="M73.4,191.2h2.1V189h-5.2c0,0,0,1.1,0,2.2c0.7,0.7,1.1,1,2.1,2c-0.6,0-2.1,0-2.1,0v2h5.2v-2L73.4,191.2z"/>
			<path class="st3" d="M80.7,191.2h2.1V189h-5.2c0,0,0,1.1,0,2.2c0.7,0.7,1.1,1,2.1,2c-0.6,0-2.1,0-2.1,0v2h5.2v-2L80.7,191.2z"/>
		</g>
	</g>
</g>
<g id="Illustrator">
	
		<rect x="-13.2" y="253.3" transform="matrix(0.7071 -0.7071 0.7071 0.7071 -172.0235 115.8889)" class="st33" width="134.1" height="24.6"/>
	
		<rect x="2.1" y="271.5" transform="matrix(0.7071 -0.7071 0.7071 0.7071 -180.0598 132.9048)" class="st34" width="136.5" height="24.6"/>
	<g>
		
			<radialGradient id="SVGID_5_" cx="-182.5467" cy="-40.072" r="4.434082e-02" gradientTransform="matrix(545.6736 0 0 -541.8568 99715.4844 -21495.207)" gradientUnits="userSpaceOnUse">
			<stop  offset="0" style="stop-color:#433426"/>
			<stop  offset="1" style="stop-color:#20130C"/>
		</radialGradient>
		<path class="st35" d="M94.1,211h31.8v31.8H94.1V211z"/>
		<path class="st36" d="M94.1,211h31.8v31.8H94.1V211z M92.6,244.2h34.7v-34.7H92.6V244.2z M115.4,221.9c0-0.1,0-0.2,0.2-0.2h2.3
			c0.1,0,0.2,0,0.2,0.2v11.7c0,0.1,0,0.2-0.2,0.2h-2.2c-0.1,0-0.2-0.1-0.2-0.2L115.4,221.9L115.4,221.9L115.4,221.9z M115.2,218.5
			c0-0.9,0.7-1.5,1.5-1.5c0.9,0,1.5,0.6,1.5,1.5c0,1-0.6,1.5-1.5,1.5C115.8,220,115.2,219.5,115.2,218.5z M108.7,226.8
			c-0.4-1.6-1.4-5.2-1.7-7h0c-0.3,1.7-1.1,4.7-1.7,7H108.7L108.7,226.8z M104.7,229.2l-1.1,4.5c0,0.1-0.1,0.1-0.2,0.1h-2.1
			c-0.1,0-0.2,0-0.1-0.2l4.1-14.8c0.1-0.3,0.1-0.5,0.1-1.2c0-0.1,0-0.1,0.1-0.1h3c0.1,0,0.1,0,0.2,0.1l4.6,16c0,0.1,0,0.2-0.1,0.2
			h-2.4c-0.1,0-0.2,0-0.2-0.1l-1.2-4.5H104.7L104.7,229.2z"/>
	</g>
</g>
<g id="Dreamweaver">
	
		<rect x="-96.8" y="228.8" transform="matrix(0.7071 -0.7071 0.7071 0.7071 -176.4701 49.0957)" class="st37" width="135.7" height="17.5"/>
	
		<rect x="-107.2" y="250.6" transform="matrix(0.7071 -0.7071 0.7071 0.7071 -191.0567 57.585)" class="st38" width="162.4" height="17.5"/>
	<g id="XMLID_13_">
		<rect id="XMLID_50_" x="12.8" y="183.4" class="st39" width="24.8" height="24.8"/>
		<rect id="XMLID_48_" x="13.9" y="184.5" class="st40" width="22.6" height="22.6"/>
		<g id="XMLID_44_">
			<g>
				<path id="XMLID_112_" class="st39" d="M16.2,189.5c0-0.1,0-0.1,0.1-0.1c0.9,0,1.9-0.1,2.8-0.1c3.2,0,4.8,2.2,4.8,5.5
					c0,4.9-3.2,5.7-5.1,5.7c-1,0-1.7,0-2.6,0c-0.1,0-0.1,0-0.1-0.2V189.5z M17.9,198.9c0.3,0,0.6,0,1,0c2,0,3.3-1.2,3.3-4.1
					c0-2.6-1.1-3.9-3.1-3.9c-0.6,0-1.1,0-1.2,0V198.9z"/>
			</g>
		</g>
		<g id="XMLID_38_">
			<g>
				<path id="XMLID_99_" class="st39" d="M31.2,200.6c-0.1,0-0.1,0-0.2-0.1c-0.8-3.8-1-5.2-1.2-6h0c-0.1,0.9-0.5,2.4-1.4,6
					c0,0.1-0.1,0.1-0.2,0.1h-1.6c-0.1,0-0.2-0.1-0.2-0.2l-1.8-8c0-0.1,0-0.1,0.1-0.1h1.5c0.1,0,0.1,0,0.1,0.1
					c0.9,4.4,1.1,5.7,1.2,6.3h0c0.1-0.3,0.4-2.1,1.3-6.2c0-0.1,0-0.1,0.1-0.1h1.5c0.1,0,0.1,0,0.1,0.1c0.9,4.4,1.1,5.7,1.2,6.3h0
					c0.2-1,0.4-2.6,1.3-6.3c0-0.1,0.1-0.1,0.1-0.1h1.4c0.1,0,0.1,0,0.1,0.1l-2,8c0,0.1,0,0.1-0.2,0.1H31.2z"/>
			</g>
		</g>
	</g>
</g>
<g id="Excel">
	
		<rect x="259.9" y="293.2" transform="matrix(0.7071 -0.7071 0.7071 0.7071 -116.4609 332.8757)" class="st41" width="167.4" height="27.6"/>
	
		<rect x="306.8" y="301.4" transform="matrix(0.7071 -0.7071 0.7071 0.7071 -113.1932 357.0662)" class="st42" width="135.3" height="27.6"/>
	<g>
		<rect x="393" y="238.1" class="st43" width="39" height="39"/>
		<g>
			<g>
				<path class="st44" d="M424.4,246.8H415v-2.2l-15.5,2.4v21l15.5,2.7v-3.3h9.5c0.6,0,1.1-0.5,1.1-1v-18.5
					C425.6,247.2,425.1,246.8,424.4,246.8z M424.6,266.5H415l0-1.8h2.3v-2.1h-2.3l0-1.2h2.4v-2.1h-2.4l0-1.2h2.4v-2.1h-2.4v-1.2h2.4
					v-2.1h-2.4v-1.2h2.4v-2.1h-2.4v-1.9h9.7V266.5z"/>
				<rect x="418.6" y="249.6" class="st44" width="4" height="2.1"/>
				<rect x="418.6" y="252.9" class="st44" width="4" height="2.1"/>
				<rect x="418.6" y="256.1" class="st44" width="4" height="2.1"/>
				<rect x="418.6" y="259.4" class="st44" width="4" height="2.1"/>
				<rect x="418.6" y="262.7" class="st44" width="4" height="2.1"/>
			</g>
			<polygon class="st43" points="403.5,252.6 405.5,252.5 406.8,256 408.2,252.4 410.2,252.2 407.8,257.2 410.2,262.1 408.1,261.9 
				406.7,258.2 405.3,261.8 403.3,261.6 405.6,257.3 			"/>
			<rect x="414.8" y="244.5" class="st43" width="0.3" height="26.1"/>
		</g>
	</g>
</g>
<g id="Access">
	
		<rect x="95.3" y="304" transform="matrix(0.7071 -0.7071 0.7071 0.7071 -167.0765 228.2842)" class="st45" width="193.4" height="23.6"/>
	
		<rect x="132.9" y="309.5" transform="matrix(0.7071 -0.7071 0.7071 0.7071 -163.0756 246.3295)" class="st46" width="165.7" height="21"/>
	<g>
		<rect x="252.1" y="239.1" class="st47" width="29.7" height="29.7"/>
		<g>
			<path class="st3" d="M268.8,244v20l-1.4-0.2l-1.1-0.2c-2.2-0.4-4.5-0.8-6.7-1.2l-2.6-0.5V246l5.1-0.9l0.3,0l2.5-0.4l2.6-0.4
				L268.8,244z"/>
			<path class="st3" d="M267.4,263.7L267.4,263.7c-0.4-0.1-0.8-0.1-1.1-0.2L267.4,263.7z"/>
			<path class="st3" d="M267.5,244.2l-2.6,0.4C265.7,244.5,266.6,244.4,267.5,244.2L267.5,244.2z"/>
			<path class="st3" d="M276.9,259c0.1,1-0.8,1.6-1.6,1.8c-2.1,0.7-4.4,0.8-6.6,0.5v2.4h0v-19.5h0v2c2.2-0.3,4.5-0.3,6.6,0.5
				c0.8,0.3,1.7,0.9,1.6,1.8C276.9,252,276.9,255.5,276.9,259z"/>
			<path id="path50_2_"  class="st47" d="M268.8,246.9c2-0.3,4.1-0.3,6.1,0.3
				c0.5,0.2,1.3,0.4,1.4,1.1c-0.1,0.5-0.6,0.8-1.1,1c-2.1,0.7-4.3,0.8-6.4,0.4C268.8,248.8,268.8,247.8,268.8,246.9z"/>
			<path id="path66_2_"  class="st47" d="M273.4,250.4c1-0.1,2-0.4,2.8-1c0,1,0.1,2-0.1,2.9
				c-0.4,0.5-1,0.7-1.6,0.8c-1.9,0.4-3.9,0.5-5.8,0.2c0-1,0-2,0-2.9C270.3,250.6,271.9,250.6,273.4,250.4z"/>
			<path id="path78_2_"  class="st47" d="M261.6,250.2c0.5,0,1.1-0.1,1.6-0.1
				c0.8,2.5,1.5,5.1,2.2,7.6c-0.5,0-1-0.1-1.6-0.1c-0.1-0.6-0.3-1.1-0.4-1.7c-0.7,0-1.4,0-2.1-0.1c-0.1,0.5-0.3,1.1-0.4,1.6
				c-0.4,0-0.9-0.1-1.3-0.1C260.3,254.9,261,252.6,261.6,250.2z"/>
			<path id="path98_2_"  class="st3" d="M261.6,254.6c0.2-1.1,0.6-2.1,0.7-3.2
				c0.2,1.1,0.5,2.1,0.8,3.2C262.6,254.6,262.1,254.6,261.6,254.6z"/>
			<path id="path110_2_"  class="st47" d="M273.4,254c1-0.1,2-0.4,2.8-1c0,1,0.1,2-0.1,2.9
				c-0.4,0.5-1,0.7-1.6,0.8c-1.9,0.5-3.9,0.5-5.8,0.2c0-1,0-2,0-2.9C270.3,254.3,271.9,254.2,273.4,254z"/>
			<path id="path118_2_"  class="st47" d="M273.4,257.7c1-0.1,2-0.4,2.8-1c0,1,0.1,2-0.1,2.9
				c-0.6,0.7-1.7,0.8-2.5,1c-1.6,0.2-3.3,0.3-4.9,0c0-1,0-2,0-2.9C270.3,257.9,271.9,257.9,273.4,257.7z"/>
			<line class="st3" x1="266.3" y1="263.5" x2="259.6" y2="262.4"/>
		</g>
	</g>
</g>
<g id="Photoshop">
	
		<rect x="-174.1" y="300.1" transform="matrix(0.7071 -0.7071 0.7071 0.7071 -240.4266 57.076)" class="st48" width="245.7" height="37.2"/>
	
		<rect x="-134.9" y="321.1" transform="matrix(0.7071 -0.7071 0.7071 0.7071 -246.002 85.6128)" class="st49" width="230.5" height="37.2"/>
	<g>
		
			<radialGradient id="SVGID_6_" cx="-182.6642" cy="-40.095" r="6.721430e-02" gradientTransform="matrix(545.6736 0 0 -541.8568 99715.4844 -21493.9648)" gradientUnits="userSpaceOnUse">
			<stop  offset="0" style="stop-color:#36374E"/>
			<stop  offset="1" style="stop-color:#151325"/>
		</radialGradient>
		<path class="st50" d="M24.6,221h48.3v48.1H24.6V221z"/>
		<path class="st51" d="M24.6,221h48.3v48.1H24.6V221z M22.4,271.4H75v-52.6H22.4V271.4z M57.9,240.3c-1.7,0-2.3,0.9-2.3,1.6
			c0,0.8,0.4,1.4,2.7,2.6c3.4,1.7,4.5,3.4,4.5,5.8c0,3.6-2.7,5.5-6.3,5.5c-1.9,0-3.6-0.4-4.5-1c-0.2-0.1-0.2-0.2-0.2-0.4v-3.3
			c0-0.2,0.1-0.3,0.3-0.2c1.4,0.9,3,1.3,4.4,1.3c1.7,0,2.5-0.7,2.5-1.8c0-0.8-0.5-1.5-2.7-2.7c-3.1-1.5-4.4-3.1-4.4-5.7
			c0-2.9,2.2-5.3,6.1-5.3c1.9,0,3.2,0.3,3.9,0.6c0.2,0.1,0.2,0.3,0.2,0.4v3.1c0,0.2-0.1,0.3-0.3,0.2
			C60.7,240.7,59.3,240.3,57.9,240.3L57.9,240.3z M39,243c0.5,0,0.9,0,1.8,0c2.6,0,5-0.9,5-4.5c0-2.9-1.7-4.3-4.7-4.3
			c-0.9,0-1.7,0-2.1,0.1V243L39,243z M35.1,231.1c0-0.2,0.3-0.3,0.5-0.3c1.4-0.1,3.5-0.1,5.7-0.1c6.1,0,8.4,3.4,8.4,7.8
			c0,5.7-4,8.2-9,8.2c-0.8,0-1.1,0-1.7,0v8.6c0,0.2-0.1,0.3-0.3,0.3h-3.4c-0.2,0-0.3-0.1-0.3-0.3L35.1,231.1L35.1,231.1z"/>
	</g>
</g>
<g id="InDesign">
	
		<rect x="28.1" y="306.6" transform="matrix(0.7071 -0.7071 0.7071 0.7071 -190.1856 173.1201)" class="st52" width="171.5" height="19.1"/>
	
		<rect x="54.5" y="314.8" transform="matrix(0.7071 -0.7071 0.7071 0.7071 -190.4908 188.8536)" class="st53" width="156.5" height="19.1"/>
	<g>
		
			<radialGradient id="SVGID_7_" cx="-183.5367" cy="-41.803" r="0.5716" gradientTransform="matrix(33 0 0 -32.7692 6233.7681 -1114.4066)" gradientUnits="userSpaceOnUse">
			<stop  offset="0" style="stop-color:#4B2C37"/>
			<stop  offset="1" style="stop-color:#26111A"/>
		</radialGradient>
		<path class="st54" d="M168.9,249.9h24.8v24.8h-24.8V249.9z"/>
		<path class="st55" d="M168.9,249.9h24.8v24.8h-24.8V249.9z M167.7,275.8h27.1v-27.1h-27.1V275.8z M184.9,260
			c-0.2-0.1-0.4-0.1-0.7-0.1c-1.5,0-2.5,1.1-2.5,3.1c0,2.2,1,3.1,2.3,3.1c0.3,0,0.6,0,0.8-0.1V260L184.9,260z M184.3,258.1
			c0.2,0,0.4,0,0.6,0V255c0-0.1,0.1-0.1,0.1-0.1h1.8c0.1,0,0.1,0,0.1,0.1v10.8c0,0.3,0,0.7,0.1,1.2c0,0.1,0,0.1-0.1,0.1
			c-1,0.5-2,0.7-3,0.7c-2.5,0-4.3-1.6-4.3-4.8C179.6,260.2,181.4,258.1,184.3,258.1z M177.6,267.5c0,0.1,0,0.2-0.1,0.2h-1.7
			c-0.1,0-0.1-0.1-0.1-0.2v-12.4c0-0.1,0.1-0.2,0.1-0.2h1.7c0.1,0,0.1,0,0.1,0.1V267.5L177.6,267.5z"/>
	</g>
</g>
<g id="Premiere_Pro">
	
		<rect x="-30.5" y="305.9" transform="matrix(0.7071 -0.7071 0.7071 0.7071 -208.0803 133.5458)" class="st56" width="175.3" height="24.1"/>
	
		<rect x="-13.4" y="322.9" transform="matrix(0.7071 -0.7071 0.7071 0.7071 -215.1495 150.6123)" class="st57" width="175.3" height="24.1"/>
	<g>
		
			<radialGradient id="SVGID_8_" cx="-272.6431" cy="211.681" r="3.984236e-02" gradientTransform="matrix(596.8347 0 0 -592.6601 162845.2188 125710.7891)" gradientUnits="userSpaceOnUse">
			<stop  offset="0" style="stop-color:#4C2F4F"/>
			<stop  offset="1" style="stop-color:#1D1224"/>
		</radialGradient>
		<path class="st58" d="M112,248.9h31.3v31.2H112V248.9z"/>
		<path class="st59" d="M112,248.9h31.3v31.2H112V248.9z M110.6,281.6h34.1v-34.1h-34.1V281.6z M131.1,261.9c0-0.2,0-0.6-0.1-1.4
			c0-0.1,0-0.1,0.1-0.2c0.9-0.4,2.9-1,5.2-1c0.1,0,0.2,0,0.2,0.1v2.1c0,0.1,0,0.1-0.2,0.1c-0.9,0-2.2,0.1-2.7,0.3v9.2
			c0,0.1,0,0.2-0.2,0.2h-2.2c-0.1,0-0.2,0-0.2-0.2L131.1,261.9L131.1,261.9z M122,263.2c0.3,0,0.6,0,1.2,0c1.7,0,3.2-0.6,3.2-2.9
			c0-1.9-1.1-2.8-3-2.8c-0.6,0-1.1,0-1.4,0V263.2L122,263.2z M119.5,255.4c0-0.1,0-0.2,0.1-0.2c0.9,0,2.2-0.1,3.7-0.1
			c3.9,0,5.7,2.2,5.7,5.1c0,3.7-2.6,5.3-5.8,5.3c-0.5,0-0.7,0-1.1,0v5.6c0,0.1,0,0.2-0.2,0.2h-2.2c-0.1,0-0.2,0-0.2-0.2L119.5,255.4
			L119.5,255.4z"/>
	</g>
</g>
</svg>
